<?xml version="1.0" standalone="no"?><!DOCTYPE svg PUBLIC "-//W3C//DTD SVG 1.1//EN" "http://www.w3.org/Graphics/SVG/1.1/DTD/svg11.dtd"><svg t="1707800029361" class="icon" viewBox="0 0 1024 1024" version="1.1" xmlns="http://www.w3.org/2000/svg" p-id="4883" xmlns:xlink="http://www.w3.org/1999/xlink" width="200" height="200"><path d="M983.771429 676.571429c-201.142857-87.771429-398.628571 0-541.257143 234.057142-1.828571-74.971429 10.971429-168.228571 20.114285-213.942857 38.4-7.314286 76.8-49.371429 95.085715-107.885714v-1.828571c1.828571 7.314286 3.657143 12.8 5.485714 20.114285 12.8 25.6 40.228571 38.4 74.971429 38.4 23.771429 0 51.2-7.314286 78.628571-20.114285 62.171429-32.914286 95.085714-93.257143 73.142857-135.314286-14.628571-27.428571-45.714286-40.228571-84.114286-36.571429 7.314286-1.828571 12.8-1.828571 20.114286-3.657143 31.085714-9.142857 56.685714-23.771429 74.971429-42.057142 21.942857-21.942857 31.085714-49.371429 23.771428-73.142858-7.314286-27.428571-34.742857-45.714286-69.485714-51.2 1.828571 0 3.657143-1.828571 7.314286-1.828571 60.342857-27.428571 93.257143-78.628571 74.971428-118.857143-9.142857-21.942857-31.085714-34.742857-60.342857-38.4-23.771429-1.828571-51.2 3.657143-78.628571 14.628572-12.8 5.485714-21.942857 10.971429-32.914286 18.285714 1.828571-3.657143 3.657143-7.314286 3.657143-10.971429 20.114286-64 1.828571-126.171429-42.057143-138.971428-43.885714-12.8-93.257143 25.6-113.371429 91.428571-1.828571 7.314286-3.657143 16.457143-5.485714 23.771429-25.6-58.514286-78.628571-91.428571-120.685714-74.971429-23.771429 3.657143-40.228571 25.6-45.714286 54.857143-3.657143 25.6 0 54.857143 10.971429 82.285714 1.828571 5.485714 3.657143 9.142857 5.485714 12.8-9.142857-5.485714-16.457143-9.142857-25.6-12.8-29.257143-10.971429-58.514286-7.314286-76.8 9.142857-20.114286 16.457143-27.428571 43.885714-21.942857 74.971429 5.485714 25.6 18.285714 54.857143 38.4 78.628571 7.314286 9.142857 14.628571 16.457143 23.771428 23.771429-21.942857-7.314286-43.885714-5.485714-60.342857 7.314286-20.114286 14.628571-29.257143 42.057143-23.771428 76.8 3.657143 27.428571 18.285714 58.514286 38.4 85.942857s45.714286 49.371429 69.485714 62.171428c14.628571 7.314286 29.257143 10.971429 43.885714 10.971429 3.657143 0 7.314286 0 12.8-1.828571 1.828571 32.914286 14.628571 58.514286 34.742857 73.142857-3.657143 25.6-14.628571 91.428571-18.285714 159.085714-89.6-137.142857-230.4-171.885714-341.942857-182.857143-18.285714-3.657143-31.085714 7.314286-32.914286 21.942857-1.828571 14.628571 9.142857 27.428571 23.771429 29.257143 135.314286 14.628571 299.885714 60.342857 356.571428 288.914286 0 1.828571 1.828571 5.485714 3.657143 7.314286v1.828571l5.485715 5.485714c1.828571 1.828571 1.828571 1.828571 3.657142 1.828572h3.657143c1.828571 0 5.485714 1.828571 7.314286 1.828571h9.142857c1.828571 0 3.657143-1.828571 5.485714-1.828571 0 0 1.828571 0 1.828572-1.828572 1.828571-1.828571 3.657143-1.828571 3.657143-3.657143 1.828571-1.828571 3.657143-3.657143 3.657143-5.485714C576 746.057143 768 640 960 724.114286c12.8 5.485714 29.257143 0 34.742857-14.628572 9.142857-10.971429 1.828571-27.428571-10.971428-32.914285z m-418.742858-138.971429c1.828571-16.457143 0-31.085714-3.657142-45.714286-3.657143-12.8-7.314286-23.771429-12.8-34.742857 9.142857-5.485714 18.285714-12.8 27.428571-21.942857 3.657143-5.485714 9.142857-10.971429 12.8-16.457143 10.971429 12.8 27.428571 23.771429 49.371429 29.257143 10.971429 1.828571 21.942857 3.657143 32.914285 3.657143 5.485714 0 10.971429 0 16.457143-1.828572-16.457143 3.657143-34.742857 9.142857-51.2 18.285715-34.742857 20.114286-58.514286 43.885714-71.314286 69.485714z m148.114286-34.742857c12.8 0 23.771429 3.657143 25.6 9.142857 5.485714 10.971429-10.971429 42.057143-49.371428 62.171429s-73.142857 16.457143-78.628572 5.485714c-5.485714-10.971429 10.971429-42.057143 49.371429-62.171429 20.114286-9.142857 38.4-14.628571 53.028571-14.628571z m58.514286-157.257143c1.828571 3.657143-1.828571 10.971429-10.971429 20.114286-12.8 12.8-31.085714 21.942857-53.028571 29.257143-21.942857 5.485714-42.057143 7.314286-60.342857 3.657142-12.8-3.657143-18.285714-7.314286-20.114286-10.971428-1.828571-9.142857 20.114286-36.571429 64-47.542857 14.628571-3.657143 27.428571-5.485714 38.4-5.485715 23.771429-1.828571 40.228571 5.485714 42.057143 10.971429z m-53.028572-160.914286c14.628571-7.314286 31.085714-10.971429 43.885715-10.971428h7.314285c10.971429 1.828571 16.457143 5.485714 16.457143 7.314285 1.828571 5.485714-9.142857 31.085714-47.542857 47.542858-38.4 16.457143-65.828571 9.142857-67.657143 3.657142-1.828571-5.485714 10.971429-31.085714 47.542857-47.542857z m-51.2 104.228572c-18.285714 5.485714-32.914286 12.8-45.714285 21.942857 0-32.914286-7.314286-62.171429-23.771429-82.285714 7.314286-1.828571 12.8-7.314286 20.114286-10.971429-1.828571 12.8-1.828571 23.771429 3.657143 34.742857 7.314286 20.114286 25.6 31.085714 45.714285 36.571429zM565.028571 109.714286c10.971429-36.571429 32.914286-54.857143 43.885715-54.857143h1.828571c9.142857 3.657143 20.114286 32.914286 7.314286 71.314286-5.485714 18.285714-16.457143 36.571429-27.428572 45.714285-7.314286 7.314286-14.628571 10.971429-18.285714 9.142857-3.657143-1.828571-9.142857-9.142857-10.971428-18.285714-3.657143-14.628571-3.657143-34.742857 3.657142-53.028571z m-45.714285 93.257143c1.828571 1.828571 3.657143 3.657143 3.657143 7.314285-1.828571 0-3.657143 1.828571-7.314286 3.657143 1.828571-3.657143 3.657143-7.314286 3.657143-10.971428zM499.2 329.142857c5.485714-21.942857 14.628571-43.885714 27.428571-56.685714 7.314286-7.314286 14.628571-12.8 20.114286-12.8h1.828572c10.971429 1.828571 23.771429 36.571429 12.8 84.114286-5.485714 21.942857-14.628571 43.885714-27.428572 56.685714-7.314286 9.142857-16.457143 12.8-21.942857 12.8-5.485714-1.828571-10.971429-9.142857-14.628571-20.114286-3.657143-18.285714-1.828571-42.057143 1.828571-64zM394.971429 111.542857c1.828571-10.971429 5.485714-18.285714 10.971428-20.114286h3.657143c12.8 0 36.571429 18.285714 49.371429 51.2 14.628571 36.571429 7.314286 67.657143-3.657143 73.142858-10.971429 3.657143-38.4-14.628571-53.028572-51.2-7.314286-18.285714-9.142857-36.571429-7.314285-53.028572z m71.314285 155.428572c-7.314286 14.628571-14.628571 31.085714-18.285714 49.371428-1.828571 7.314286-3.657143 14.628571-3.657143 21.942857 1.828571-23.771429-7.314286-49.371429-21.942857-74.971428 9.142857 3.657143 20.114286 7.314286 29.257143 7.314285 5.485714-1.828571 9.142857-1.828571 14.628571-3.657142z m-179.2-7.314286c-1.828571-10.971429 0-20.114286 3.657143-23.771429 1.828571-1.828571 5.485714-1.828571 9.142857-1.828571s9.142857 1.828571 14.628572 3.657143c16.457143 5.485714 32.914286 18.285714 47.542857 34.742857 29.257143 34.742857 32.914286 69.485714 23.771428 76.8-9.142857 7.314286-42.057143-1.828571-71.314285-36.571429-14.628571-18.285714-25.6-36.571429-27.428572-53.028571zM365.714286 557.714286c-1.828571 1.828571-10.971429 1.828571-23.771429-3.657143-16.457143-9.142857-34.742857-25.6-51.2-45.714286-14.628571-20.114286-25.6-42.057143-27.428571-62.171428-1.828571-14.628571 0-21.942857 3.657143-23.771429 1.828571 0 3.657143-1.828571 5.485714-1.828571 12.8 0 42.057143 12.8 69.485714 51.2 14.628571 20.114286 25.6 42.057143 27.428572 62.171428 1.828571 12.8-1.828571 21.942857-3.657143 23.771429z m42.057143-78.628572c-5.485714-12.8-14.628571-27.428571-23.771429-40.228571-10.971429-14.628571-23.771429-27.428571-34.742857-38.4 9.142857 3.657143 18.285714 3.657143 27.428571 3.657143 16.457143 0 31.085714-5.485714 43.885715-14.628572 12.8-10.971429 20.114286-25.6 21.942857-43.885714-1.828571 21.942857 0 42.057143 5.485714 60.342857 3.657143 9.142857 7.314286 18.285714 10.971429 25.6-9.142857 3.657143-18.285714 10.971429-27.428572 20.114286-9.142857 9.142857-16.457143 18.285714-23.771428 27.428571z m25.6 71.314286c7.314286-23.771429 20.114286-45.714286 34.742857-58.514286 9.142857-7.314286 16.457143-12.8 23.771428-12.8h3.657143c5.485714 1.828571 12.8 10.971429 14.628572 25.6 3.657143 18.285714 1.828571 43.885714-5.485715 67.657143-14.628571 49.371429-45.714286 74.971429-60.342857 71.314286-14.628571-5.485714-25.6-43.885714-10.971428-93.257143z" fill="#00adb5" p-id="4884"></path></svg>